<?xml version="1.0" standalone="no"?>
<!DOCTYPE svg PUBLIC "-//W3C//DTD SVG 20010904//EN"
 "http://www.w3.org/TR/2001/REC-SVG-20010904/DTD/svg10.dtd">
<svg version="1.0" xmlns="http://www.w3.org/2000/svg"
 width="204.000000pt" height="264.000000pt" viewBox="0 0 204.000000 264.000000"
 preserveAspectRatio="xMidYMid meet">

<g transform="translate(0.000000,264.000000) scale(0.100000,-0.100000)"
fill="#000000" stroke="none">
<path d="M0 1320 l0 -1320 1020 0 1020 0 0 1320 0 1320 -1020 0 -1020 0 0
-1320z m1950 0 l0 -1220 -915 0 -915 0 0 1220 0 1220 915 0 915 0 0 -1220z"/>
<path d="M140 1320 l0 -1200 895 0 895 0 0 1200 0 1200 -895 0 -895 0 0 -1200z
m448 783 c2 -9 -9 -13 -37 -13 -37 0 -41 -2 -41 -25 0 -22 4 -25 35 -25 19 0
35 -4 35 -10 0 -5 -16 -10 -35 -10 -32 0 -35 -2 -35 -30 0 -28 2 -30 40 -30
22 0 40 -4 40 -10 0 -5 -25 -10 -55 -10 l-55 0 0 91 0 90 52 -3 c30 -2 53 -8
56 -15z m132 -3 c11 -11 20 -24 20 -30 0 -16 -27 -11 -34 6 -7 19 -51 15 -51
-5 0 -8 18 -24 40 -35 42 -22 56 -55 35 -82 -24 -28 -110 -11 -110 21 0 20 26
19 34 -1 8 -21 50 -14 54 8 2 12 -6 22 -25 29 -63 24 -81 65 -41 93 30 21 54
20 78 -4z m168 3 c2 -9 -7 -13 -27 -13 l-31 0 0 -75 c0 -43 -4 -75 -10 -75 -6
0 -10 32 -10 75 l0 75 -30 0 c-29 0 -38 9 -23 24 12 12 126 2 131 -11z m244 5
c16 -13 22 -29 19 -55 0 -7 -17 -31 -37 -53 l-36 -40 41 0 c22 0 41 -4 41 -10
0 -5 -25 -10 -55 -10 -61 0 -70 13 -35 45 30 27 62 83 55 95 -9 15 -45 12 -51
-5 -6 -16 -34 -21 -34 -7 0 13 23 39 40 45 25 9 35 8 52 -5z m158 -8 c15 -15
20 -33 20 -74 0 -62 -16 -86 -59 -86 -40 0 -55 23 -55 87 -1 46 3 58 23 74 30
24 46 24 71 -1z m132 8 c16 -13 22 -29 19 -55 0 -7 -17 -31 -37 -53 l-36 -40
41 0 c22 0 41 -4 41 -10 0 -5 -25 -10 -55 -10 -61 0 -70 13 -35 45 30 27 62
83 55 95 -9 15 -45 12 -51 -5 -6 -16 -34 -21 -34 -7 0 13 23 39 40 45 25 9 35
8 52 -5z m158 -53 c0 -33 5 -56 13 -59 10 -5 10 -7 0 -12 -7 -3 -13 -14 -13
-25 0 -10 -7 -19 -15 -19 -8 0 -15 9 -15 20 0 17 -7 20 -40 20 -22 0 -40 2
-40 5 0 2 16 31 37 62 57 91 73 92 73 8z m-597 -100 c1 -5 -6 -11 -15 -13 -11
-2 -18 3 -18 13 0 17 30 18 33 0z m-375 -502 l3 -103 64 0 65 0 0 105 0 105
55 0 55 0 0 -260 0 -260 -55 0 -55 0 0 110 0 110 -65 0 -65 0 0 -110 0 -110
-55 0 -55 0 0 261 0 260 53 -3 52 -3 3 -102z m687 62 l0 -40 -122 -3 -123 -3
0 -64 0 -65 110 0 110 0 0 -45 0 -45 -110 0 -110 0 0 -105 0 -105 -55 0 -55 0
0 260 0 260 178 -2 177 -3 0 -40z m-800 -872 c10 -62 13 -69 14 -41 1 37 19
80 30 74 5 -3 12 -27 17 -53 l8 -48 6 48 c3 26 10 46 15 45 10 -3 10 -75 0
-135 -9 -52 -32 -41 -43 20 l-9 52 -8 -52 c-7 -48 -24 -68 -39 -45 -11 18 -18
172 -8 172 6 0 14 -17 17 -37z m220 -44 c14 -44 25 -84 25 -90 0 -17 -22 -9
-27 11 -4 14 -14 20 -33 20 -20 0 -31 -6 -35 -20 -3 -11 -12 -20 -20 -20 -10
0 -8 19 12 83 14 45 27 85 30 90 12 19 24 0 48 -74z m173 64 c2 -9 -7 -13 -27
-13 l-31 0 0 -75 c0 -43 -4 -75 -10 -75 -6 0 -10 32 -10 75 l0 75 -30 0 c-29
0 -38 9 -23 24 12 12 126 2 131 -11z m130 0 c2 -9 -9 -13 -37 -13 -37 0 -41
-2 -41 -25 0 -22 4 -25 35 -25 19 0 35 -4 35 -10 0 -5 -16 -10 -35 -10 -32 0
-35 -2 -35 -30 0 -28 2 -30 40 -30 22 0 40 -4 40 -10 0 -5 -25 -10 -55 -10
l-55 0 0 83 c0 46 3 87 7 91 12 11 96 2 101 -11z m106 7 c38 -14 51 -46 31
-76 -14 -22 -14 -27 0 -54 18 -36 19 -40 2 -40 -7 0 -21 16 -30 35 -9 19 -23
35 -32 35 -10 0 -15 -10 -15 -35 0 -24 -5 -35 -15 -35 -12 0 -15 16 -15 83 0
46 3 87 7 90 9 10 38 9 67 -3z m106 -76 l0 -74 40 0 c22 0 40 -4 40 -10 0 -5
-25 -10 -55 -10 l-55 0 0 83 c0 46 3 87 6 90 16 16 24 -10 24 -79z m207 60
c22 -22 25 -32 21 -74 -6 -59 -21 -80 -58 -80 -50 0 -80 64 -60 126 19 58 56
68 97 28z m140 4 c18 -16 23 -32 23 -68 0 -58 -21 -90 -60 -90 -39 0 -60 32
-60 92 0 78 49 111 97 66z"/>
<path d="M1224 2065 c-10 -40 -1 -46 30 -22 31 25 29 47 -4 47 -12 0 -22 -9
-26 -25z"/>
<path d="M1246 2007 c-25 -20 -26 -24 -12 -36 24 -20 46 -6 46 29 0 16 -1 30
-2 30 -2 0 -16 -10 -32 -23z"/>
<path d="M1526 2035 c-21 -31 -20 -35 4 -35 16 0 20 7 20 30 0 36 -3 37 -24 5z"/>
<path d="M668 595 c-4 -17 -1 -25 8 -25 8 0 14 9 14 19 0 30 -17 34 -22 6z"/>
<path d="M1080 620 c0 -23 5 -30 19 -30 24 0 45 25 37 45 -3 8 -17 15 -31 15
-21 0 -25 -5 -25 -30z"/>
<path d="M1370 631 c-26 -49 1 -127 37 -105 22 13 30 88 12 110 -16 20 -36 18
-49 -5z"/>
<path d="M1513 633 c-22 -57 8 -131 42 -103 12 10 15 27 13 64 -3 44 -6 51
-26 54 -14 2 -25 -3 -29 -15z"/>
</g>
</svg>
